<?xml version="1.0" encoding="UTF-8"?><svg id="Layer_1" xmlns="http://www.w3.org/2000/svg" viewBox="0 0 1849.7 252.05"><defs><style>.cls-1,.cls-2,.cls-3,.cls-4{isolation:isolate;}.cls-2{letter-spacing:-.04em;}.cls-2,.cls-3,.cls-4{font-family:Bahnschrift, Bahnschrift;font-size:351.4px;font-variation-settings:'wght' 400, 'wdth' 100;}.cls-2,.cls-3,.cls-4,.cls-5{fill:#9aa0a6;}.cls-3{letter-spacing:.02em;}</style></defs><g class="cls-1"><text class="cls-4" transform="translate(-25.74 249.48)"><tspan x="0" y="0">O</tspan></text><text class="cls-4" transform="translate(201.1 249.48)"><tspan x="0" y="0">V</tspan></text><text class="cls-4" transform="translate(409.05 249.48)"><tspan x="0" y="0">ER</tspan></text><text class="cls-2" transform="translate(848.12 249.48)"><tspan x="0" y="0">P</tspan></text><text class="cls-2" transform="translate(1051.45 249.48)"><tspan x="0" y="0">A</tspan></text><text class="cls-4" transform="translate(1265.24 249.48)"><tspan x="0" y="0">S</tspan></text><text class="cls-3" transform="translate(1481.61 249.48)"><tspan x="0" y="0">T</tspan></text><text class="cls-4" transform="translate(1657.64 249.48)"><tspan x="0" y="0">E</tspan></text></g><path class="cls-5" d="m59.54,64.69c-3.04,0-6.02,1.24-8.17,3.38-2.15,2.15-3.38,5.12-3.38,8.17s1.24,6.02,3.38,8.17c2.15,2.15,5.13,3.38,8.17,3.38s6.02-1.23,8.17-3.38c2.15-2.15,3.38-5.12,3.38-8.17s-1.24-6.02-3.38-8.17c-2.15-2.15-5.13-3.38-8.17-3.38Z"/><path class="cls-5" d="m113.76,64.69c-3.04,0-6.02,1.24-8.17,3.38-2.15,2.15-3.38,5.12-3.38,8.17s1.24,6.02,3.38,8.17c2.15,2.15,5.13,3.38,8.17,3.38s6.02-1.23,8.17-3.38c2.15-2.15,3.38-5.12,3.38-8.17s-1.24-6.02-3.38-8.17c-2.15-2.15-5.13-3.38-8.17-3.38Z"/><path class="cls-5" d="m110.29,169.69c-13.04,14.32-34.25,14.33-47.28,0-3.43-3.77-9.01-3.77-12.44,0s-3.43,9.9,0,13.68c9.95,10.94,23.01,16.4,36.08,16.4s26.13-5.47,36.08-16.4c3.43-3.77,3.43-9.9,0-13.68s-9.01-3.77-12.44,0h-.01Z"/></svg>